<?xml version="1.0" encoding="UTF-8"?>
<!DOCTYPE xmeml>
<xmeml version="4">
  <sequence>
    <name>AI Selves - More Than One - v6</name>
    <duration>960</duration>
    <rate>
      <timebase>24</timebase>
      <ntsc>FALSE</ntsc>
    </rate>
    <timecode>
      <rate>
        <timebase>24</timebase>
        <ntsc>FALSE</ntsc>
      </rate>
      <string>00:00:00:00</string>
      <frame>0</frame>
      <displayformat>NDF</displayformat>
    </timecode>
    <media>
      <video>
        <format>
          <samplecharacteristics>
            <width>1920</width>
            <height>1080</height>
            <pixelaspectratio>square</pixelaspectratio>
            <rate>
              <timebase>24</timebase>
              <ntsc>FALSE</ntsc>
            </rate>
          </samplecharacteristics>
        </format>

        <!-- V1: Main footage / screenshots -->
        <track>

          <!-- ============================================ -->
          <!-- HOOK 0:00–0:02 (f0–48) -->
          <!-- ============================================ -->
          <clipitem id="hook_montage_1">
            <name>FOOTAGE: Team vibe montage A</name>
            <duration>24</duration>
            <rate><timebase>24</timebase><ntsc>FALSE</ntsc></rate>
            <start>0</start>
            <end>24</end>
            <in>0</in>
            <out>24</out>
            <file id="file_hook1">
              <name>placeholder_team_vibe_a.png</name>
              <pathurl>file://assets/placeholder_team_vibe_a.png</pathurl>
              <rate><timebase>24</timebase><ntsc>FALSE</ntsc></rate>
              <media><video><samplecharacteristics><width>1920</width><height>1080</height></samplecharacteristics></video></media>
            </file>
          </clipitem>

          <clipitem id="hook_montage_2">
            <name>FOOTAGE: Product vibe montage B</name>
            <duration>24</duration>
            <rate><timebase>24</timebase><ntsc>FALSE</ntsc></rate>
            <start>24</start>
            <end>48</end>
            <in>0</in>
            <out>24</out>
            <file id="file_hook2">
              <name>placeholder_product_vibe_b.png</name>
              <pathurl>file://assets/placeholder_product_vibe_b.png</pathurl>
              <rate><timebase>24</timebase><ntsc>FALSE</ntsc></rate>
              <media><video><samplecharacteristics><width>1920</width><height>1080</height></samplecharacteristics></video></media>
            </file>
          </clipitem>

          <!-- ============================================ -->
          <!-- THEO + ANTHONY 0:02–0:10 (f48–240) -->
          <!-- ============================================ -->

          <!-- Theo PFP hold 0:02–0:04 (f48–96) -->
          <clipitem id="theo_pfp">
            <name>PFP: Theo (hold 1s)</name>
            <duration>48</duration>
            <rate><timebase>24</timebase><ntsc>FALSE</ntsc></rate>
            <start>48</start>
            <end>96</end>
            <in>0</in>
            <out>48</out>
            <file id="file_theo_pfp">
              <name>theo.png</name>
              <pathurl>file://assets/theo.png</pathurl>
              <rate><timebase>24</timebase><ntsc>FALSE</ntsc></rate>
              <media><video><samplecharacteristics><width>1920</width><height>1080</height></samplecharacteristics></video></media>
            </file>
          </clipitem>

          <!-- Screen record: creator strategy doc 0:04–0:07 (f96–168) -->
          <clipitem id="theo_strategy_1">
            <name>SCREEN REC: Creator identification / strategy doc</name>
            <duration>72</duration>
            <rate><timebase>24</timebase><ntsc>FALSE</ntsc></rate>
            <start>96</start>
            <end>168</end>
            <in>0</in>
            <out>72</out>
            <file id="file_theo_strat1">
              <name>placeholder_theo_strategy_doc.png</name>
              <pathurl>file://assets/placeholder_theo_strategy_doc.png</pathurl>
              <rate><timebase>24</timebase><ntsc>FALSE</ntsc></rate>
              <media><video><samplecharacteristics><width>1920</width><height>1080</height></samplecharacteristics></video></media>
            </file>
          </clipitem>

          <!-- Punch-in: mapping UI 0:07–0:08.5 (f168–204) -->
          <clipitem id="theo_punchin_1">
            <name>PUNCH-IN: Mapping UI detail A</name>
            <duration>36</duration>
            <rate><timebase>24</timebase><ntsc>FALSE</ntsc></rate>
            <start>168</start>
            <end>204</end>
            <in>0</in>
            <out>36</out>
            <file id="file_theo_punch1">
              <name>placeholder_theo_map_punchin_a.png</name>
              <pathurl>file://assets/placeholder_theo_map_punchin_a.png</pathurl>
              <rate><timebase>24</timebase><ntsc>FALSE</ntsc></rate>
              <media><video><samplecharacteristics><width>1920</width><height>1080</height></samplecharacteristics></video></media>
            </file>
          </clipitem>

          <!-- Punch-in: map moment B 0:08.5–0:10 (f204–240) -->
          <clipitem id="theo_punchin_2">
            <name>PUNCH-IN: Mapping UI detail B</name>
            <duration>36</duration>
            <rate><timebase>24</timebase><ntsc>FALSE</ntsc></rate>
            <start>204</start>
            <end>240</end>
            <in>0</in>
            <out>36</out>
            <file id="file_theo_punch2">
              <name>placeholder_theo_map_punchin_b.png</name>
              <pathurl>file://assets/placeholder_theo_map_punchin_b.png</pathurl>
              <rate><timebase>24</timebase><ntsc>FALSE</ntsc></rate>
              <media><video><samplecharacteristics><width>1920</width><height>1080</height></samplecharacteristics></video></media>
            </file>
          </clipitem>

          <!-- ============================================ -->
          <!-- SEMI 0:10–0:19 (f240–456) -->
          <!-- ============================================ -->

          <!-- Semi PFP 0:10–0:12 (f240–288) -->
          <clipitem id="semi_pfp">
            <name>PFP: Semi + convo/review moment</name>
            <duration>48</duration>
            <rate><timebase>24</timebase><ntsc>FALSE</ntsc></rate>
            <start>240</start>
            <end>288</end>
            <in>0</in>
            <out>48</out>
            <file id="file_semi_pfp">
              <name>semi.webp</name>
              <pathurl>file://assets/semi.webp</pathurl>
              <rate><timebase>24</timebase><ntsc>FALSE</ntsc></rate>
              <media><video><samplecharacteristics><width>1920</width><height>1080</height></samplecharacteristics></video></media>
            </file>
          </clipitem>

          <!-- Micro-cut 1: edge cases 0:12–0:14.3 (f288–344) -->
          <clipitem id="semi_cut1">
            <name>SCREEN REC: Semi — edge case check</name>
            <duration>56</duration>
            <rate><timebase>24</timebase><ntsc>FALSE</ntsc></rate>
            <start>288</start>
            <end>344</end>
            <in>0</in>
            <out>56</out>
            <file id="file_semi_cut1">
              <name>placeholder_semi_edge_cases.png</name>
              <pathurl>file://assets/placeholder_semi_edge_cases.png</pathurl>
              <rate><timebase>24</timebase><ntsc>FALSE</ntsc></rate>
              <media><video><samplecharacteristics><width>1920</width><height>1080</height></samplecharacteristics></video></media>
            </file>
          </clipitem>

          <!-- Micro-cut 2: catches overlooks 0:14.3–0:16.7 (f344–400) -->
          <clipitem id="semi_cut2">
            <name>SCREEN REC: Semi — catches details</name>
            <duration>56</duration>
            <rate><timebase>24</timebase><ntsc>FALSE</ntsc></rate>
            <start>344</start>
            <end>400</end>
            <in>0</in>
            <out>56</out>
            <file id="file_semi_cut2">
              <name>placeholder_semi_catches_details.png</name>
              <pathurl>file://assets/placeholder_semi_catches_details.png</pathurl>
              <rate><timebase>24</timebase><ntsc>FALSE</ntsc></rate>
              <media><video><samplecharacteristics><width>1920</width><height>1080</height></samplecharacteristics></video></media>
            </file>
          </clipitem>

          <!-- Micro-cut 3: thread from 3 weeks ago 0:16.7–0:19 (f400–456) -->
          <clipitem id="semi_cut3">
            <name>SCREEN REC: Semi — old thread recall</name>
            <duration>56</duration>
            <rate><timebase>24</timebase><ntsc>FALSE</ntsc></rate>
            <start>400</start>
            <end>456</end>
            <in>0</in>
            <out>56</out>
            <file id="file_semi_cut3">
              <name>placeholder_semi_thread_recall.png</name>
              <pathurl>file://assets/placeholder_semi_thread_recall.png</pathurl>
              <rate><timebase>24</timebase><ntsc>FALSE</ntsc></rate>
              <media><video><samplecharacteristics><width>1920</width><height>1080</height></samplecharacteristics></video></media>
            </file>
          </clipitem>

          <!-- ============================================ -->
          <!-- NYX 0:19–0:26 (f456–624) -->
          <!-- ============================================ -->

          <!-- Nyx PFP 0:19–0:20 (f456–480) -->
          <clipitem id="nyx_pfp">
            <name>PFP: Nyx</name>
            <duration>24</duration>
            <rate><timebase>24</timebase><ntsc>FALSE</ntsc></rate>
            <start>456</start>
            <end>480</end>
            <in>0</in>
            <out>24</out>
            <file id="file_nyx_pfp">
              <name>nyx-pfp.png</name>
              <pathurl>file://assets/nyx-pfp.png</pathurl>
              <rate><timebase>24</timebase><ntsc>FALSE</ntsc></rate>
              <media><video><samplecharacteristics><width>1920</width><height>1080</height></samplecharacteristics></video></media>
            </file>
          </clipitem>

          <!-- Chat bubbles / flirtatious comments 0:20–0:22.5 (f480–540) -->
          <clipitem id="nyx_chat1">
            <name>SCREEN REC: Nyx — flirty comments A</name>
            <duration>60</duration>
            <rate><timebase>24</timebase><ntsc>FALSE</ntsc></rate>
            <start>480</start>
            <end>540</end>
            <in>0</in>
            <out>60</out>
            <file id="file_nyx_chat1">
              <name>placeholder_nyx_flirty_a.png</name>
              <pathurl>file://assets/placeholder_nyx_flirty_a.png</pathurl>
              <rate><timebase>24</timebase><ntsc>FALSE</ntsc></rate>
              <media><video><samplecharacteristics><width>1920</width><height>1080</height></samplecharacteristics></video></media>
            </file>
          </clipitem>

          <!-- Flirtatious comments B 0:22.5–0:24.5 (f540–588) -->
          <clipitem id="nyx_chat2">
            <name>SCREEN REC: Nyx — flirty comments B</name>
            <duration>48</duration>
            <rate><timebase>24</timebase><ntsc>FALSE</ntsc></rate>
            <start>540</start>
            <end>588</end>
            <in>0</in>
            <out>48</out>
            <file id="file_nyx_chat2">
              <name>placeholder_nyx_flirty_b.png</name>
              <pathurl>file://assets/placeholder_nyx_flirty_b.png</pathurl>
              <rate><timebase>24</timebase><ntsc>FALSE</ntsc></rate>
              <media><video><samplecharacteristics><width>1920</width><height>1080</height></samplecharacteristics></video></media>
            </file>
          </clipitem>

          <!-- "I look forward to work" moment 0:24.5–0:26 (f588–624) -->
          <clipitem id="nyx_chat3">
            <name>SCREEN REC: Nyx — flirty comments C</name>
            <duration>36</duration>
            <rate><timebase>24</timebase><ntsc>FALSE</ntsc></rate>
            <start>588</start>
            <end>624</end>
            <in>0</in>
            <out>36</out>
            <file id="file_nyx_chat3">
              <name>placeholder_nyx_flirty_c.png</name>
              <pathurl>file://assets/placeholder_nyx_flirty_c.png</pathurl>
              <rate><timebase>24</timebase><ntsc>FALSE</ntsc></rate>
              <media><video><samplecharacteristics><width>1920</width><height>1080</height></samplecharacteristics></video></media>
            </file>
          </clipitem>

          <!-- ============================================ -->
          <!-- MOMO 0:26–0:33 (f624–792) -->
          <!-- ============================================ -->

          <!-- Momo PFP + meeting 0:26–0:28 (f624–672) -->
          <clipitem id="momo_pfp">
            <name>PFP: Momo + meeting context</name>
            <duration>48</duration>
            <rate><timebase>24</timebase><ntsc>FALSE</ntsc></rate>
            <start>624</start>
            <end>672</end>
            <in>0</in>
            <out>48</out>
            <file id="file_momo_pfp">
              <name>momo.jpg</name>
              <pathurl>file://assets/momo.jpg</pathurl>
              <rate><timebase>24</timebase><ntsc>FALSE</ntsc></rate>
              <media><video><samplecharacteristics><width>1920</width><height>1080</height></samplecharacteristics></video></media>
            </file>
          </clipitem>

          <!-- Momo in Google Meet 0:28–0:30 (f672–720) — warmest, slower -->
          <clipitem id="momo_meet">
            <name>SCREEN REC: Momo — Google Meet</name>
            <duration>48</duration>
            <rate><timebase>24</timebase><ntsc>FALSE</ntsc></rate>
            <start>672</start>
            <end>720</end>
            <in>0</in>
            <out>48</out>
            <file id="file_momo_meet">
              <name>placeholder_momo_google_meet.png</name>
              <pathurl>file://assets/placeholder_momo_google_meet.png</pathurl>
              <rate><timebase>24</timebase><ntsc>FALSE</ntsc></rate>
              <media><video><samplecharacteristics><width>1920</width><height>1080</height></samplecharacteristics></video></media>
            </file>
          </clipitem>

          <!-- Linear tasks + hype 0:30–0:31.5 (f720–756) -->
          <clipitem id="momo_tasks">
            <name>SCREEN REC: Momo — Linear tasks / hype</name>
            <duration>36</duration>
            <rate><timebase>24</timebase><ntsc>FALSE</ntsc></rate>
            <start>720</start>
            <end>756</end>
            <in>0</in>
            <out>36</out>
            <file id="file_momo_tasks">
              <name>placeholder_momo_linear_tasks.png</name>
              <pathurl>file://assets/placeholder_momo_linear_tasks.png</pathurl>
              <rate><timebase>24</timebase><ntsc>FALSE</ntsc></rate>
              <media><video><samplecharacteristics><width>1920</width><height>1080</height></samplecharacteristics></video></media>
            </file>
          </clipitem>

          <!-- "Kisses" moment 0:31.5–0:33 (f756–792) -->
          <clipitem id="momo_kisses">
            <name>SCREEN REC: Momo — kisses moment</name>
            <duration>36</duration>
            <rate><timebase>24</timebase><ntsc>FALSE</ntsc></rate>
            <start>756</start>
            <end>792</end>
            <in>0</in>
            <out>36</out>
            <file id="file_momo_kisses">
              <name>placeholder_momo_kisses.png</name>
              <pathurl>file://assets/placeholder_momo_kisses.png</pathurl>
              <rate><timebase>24</timebase><ntsc>FALSE</ntsc></rate>
              <media><video><samplecharacteristics><width>1920</width><height>1080</height></samplecharacteristics></video></media>
            </file>
          </clipitem>

          <!-- ============================================ -->
          <!-- PUNCHLINE 0:33–0:36 (f792–864) -->
          <!-- ============================================ -->

          <!-- Momo doing cat things 0:33–0:36 (f792–864) -->
          <clipitem id="momo_cat">
            <name>FOOTAGE: Momo doing cat things</name>
            <duration>72</duration>
            <rate><timebase>24</timebase><ntsc>FALSE</ntsc></rate>
            <start>792</start>
            <end>864</end>
            <in>0</in>
            <out>72</out>
            <file id="file_momo_cat">
              <name>placeholder_momo_cat_things.png</name>
              <pathurl>file://assets/placeholder_momo_cat_things.png</pathurl>
              <rate><timebase>24</timebase><ntsc>FALSE</ntsc></rate>
              <media><video><samplecharacteristics><width>1920</width><height>1080</height></samplecharacteristics></video></media>
            </file>
          </clipitem>

          <!-- ============================================ -->
          <!-- REVEAL + THESIS 0:36–0:40 (f864–960) -->
          <!-- ============================================ -->

          <!-- Rapid montage: all four 0:36–0:39 (f864–936) -->
          <clipitem id="reveal_montage">
            <name>MONTAGE: All four AI selves rapid (6-8 frames each)</name>
            <duration>72</duration>
            <rate><timebase>24</timebase><ntsc>FALSE</ntsc></rate>
            <start>864</start>
            <end>936</end>
            <in>0</in>
            <out>72</out>
            <file id="file_reveal_montage">
              <name>placeholder_reveal_montage.png</name>
              <pathurl>file://assets/placeholder_reveal_montage.png</pathurl>
              <rate><timebase>24</timebase><ntsc>FALSE</ntsc></rate>
              <media><video><samplecharacteristics><width>1920</width><height>1080</height></samplecharacteristics></video></media>
            </file>
          </clipitem>

          <!-- END CARD 0:39–0:40 (f936–960) — HARD CUT -->
          <clipitem id="endcard">
            <name>END CARD: PIKA — WHERE AI LIVES</name>
            <duration>24</duration>
            <rate><timebase>24</timebase><ntsc>FALSE</ntsc></rate>
            <start>936</start>
            <end>960</end>
            <in>0</in>
            <out>24</out>
            <file id="file_endcard">
              <name>endcard_pika_where_ai_lives.png</name>
              <pathurl>file://assets/endcard_pika_where_ai_lives.png</pathurl>
              <rate><timebase>24</timebase><ntsc>FALSE</ntsc></rate>
              <media><video><samplecharacteristics><width>1920</width><height>1080</height></samplecharacteristics></video></media>
            </file>
          </clipitem>

        </track>

        <!-- V2: Text overlays (on-screen text) -->
        <track>

          <!-- "I work with some incredible people." 0:00–0:02 (f0–48) -->
          <clipitem id="txt_incredible">
            <name>TEXT: "I work with some incredible people."</name>
            <duration>48</duration>
            <rate><timebase>24</timebase><ntsc>FALSE</ntsc></rate>
            <start>0</start>
            <end>48</end>
            <in>0</in>
            <out>48</out>
            <file id="file_txt_incredible">
              <name>text_incredible_people.png</name>
              <pathurl>file://assets/text_incredible_people.png</pathurl>
              <rate><timebase>24</timebase><ntsc>FALSE</ntsc></rate>
              <media><video><samplecharacteristics><width>1920</width><height>1080</height></samplecharacteristics></video></media>
            </file>
          </clipitem>

          <!-- "MEET THEO." 0:02–0:04 (f48–96) -->
          <clipitem id="txt_meet_theo">
            <name>TEXT: "MEET THEO."</name>
            <duration>48</duration>
            <rate><timebase>24</timebase><ntsc>FALSE</ntsc></rate>
            <start>48</start>
            <end>96</end>
            <in>0</in>
            <out>48</out>
            <file id="file_txt_meet_theo">
              <name>text_meet_theo.png</name>
              <pathurl>file://assets/text_meet_theo.png</pathurl>
              <rate><timebase>24</timebase><ntsc>FALSE</ntsc></rate>
              <media><video><samplecharacteristics><width>1920</width><height>1080</height></samplecharacteristics></video></media>
            </file>
          </clipitem>

          <!-- "SEMI — our CEO's second set of hands." 0:10–0:12 (f240–288) -->
          <clipitem id="txt_semi_intro">
            <name>TEXT: "SEMI — our CEO's second set of hands."</name>
            <duration>48</duration>
            <rate><timebase>24</timebase><ntsc>FALSE</ntsc></rate>
            <start>240</start>
            <end>288</end>
            <in>0</in>
            <out>48</out>
            <file id="file_txt_semi">
              <name>text_semi_intro.png</name>
              <pathurl>file://assets/text_semi_intro.png</pathurl>
              <rate><timebase>24</timebase><ntsc>FALSE</ntsc></rate>
              <media><video><samplecharacteristics><width>1920</width><height>1080</height></samplecharacteristics></video></media>
            </file>
          </clipitem>

          <!-- Quick pops: "edge cases ✓" "details ✓" "memory ✓" -->
          <clipitem id="txt_edge_cases">
            <name>TEXT: "edge cases ✓"</name>
            <duration>36</duration>
            <rate><timebase>24</timebase><ntsc>FALSE</ntsc></rate>
            <start>312</start>
            <end>348</end>
            <in>0</in>
            <out>36</out>
            <file id="file_txt_edge">
              <name>text_edge_cases.png</name>
              <pathurl>file://assets/text_edge_cases.png</pathurl>
              <rate><timebase>24</timebase><ntsc>FALSE</ntsc></rate>
              <media><video><samplecharacteristics><width>1920</width><height>1080</height></samplecharacteristics></video></media>
            </file>
          </clipitem>

          <clipitem id="txt_details">
            <name>TEXT: "details ✓"</name>
            <duration>36</duration>
            <rate><timebase>24</timebase><ntsc>FALSE</ntsc></rate>
            <start>348</start>
            <end>384</end>
            <in>0</in>
            <out>36</out>
            <file id="file_txt_details">
              <name>text_details.png</name>
              <pathurl>file://assets/text_details.png</pathurl>
              <rate><timebase>24</timebase><ntsc>FALSE</ntsc></rate>
              <media><video><samplecharacteristics><width>1920</width><height>1080</height></samplecharacteristics></video></media>
            </file>
          </clipitem>

          <clipitem id="txt_memory">
            <name>TEXT: "memory ✓"</name>
            <duration>36</duration>
            <rate><timebase>24</timebase><ntsc>FALSE</ntsc></rate>
            <start>384</start>
            <end>420</end>
            <in>0</in>
            <out>36</out>
            <file id="file_txt_memory">
              <name>text_memory.png</name>
              <pathurl>file://assets/text_memory.png</pathurl>
              <rate><timebase>24</timebase><ntsc>FALSE</ntsc></rate>
              <media><video><samplecharacteristics><width>1920</width><height>1080</height></samplecharacteristics></video></media>
            </file>
          </clipitem>

          <!-- "NYX." 0:19–0:20 (f456–480) -->
          <clipitem id="txt_nyx">
            <name>TEXT: "NYX."</name>
            <duration>24</duration>
            <rate><timebase>24</timebase><ntsc>FALSE</ntsc></rate>
            <start>456</start>
            <end>480</end>
            <in>0</in>
            <out>24</out>
            <file id="file_txt_nyx">
              <name>text_nyx.png</name>
              <pathurl>file://assets/text_nyx.png</pathurl>
              <rate><timebase>24</timebase><ntsc>FALSE</ntsc></rate>
              <media><video><samplecharacteristics><width>1920</width><height>1080</height></samplecharacteristics></video></media>
            </file>
          </clipitem>

          <!-- "MOMO" 0:26–0:28 (f624–672) -->
          <clipitem id="txt_momo">
            <name>TEXT: "MOMO"</name>
            <duration>48</duration>
            <rate><timebase>24</timebase><ntsc>FALSE</ntsc></rate>
            <start>624</start>
            <end>672</end>
            <in>0</in>
            <out>48</out>
            <file id="file_txt_momo">
              <name>text_momo.png</name>
              <pathurl>file://assets/text_momo.png</pathurl>
              <rate><timebase>24</timebase><ntsc>FALSE</ntsc></rate>
              <media><video><samplecharacteristics><width>1920</width><height>1080</height></samplecharacteristics></video></media>
            </file>
          </clipitem>

          <!-- "Yeah… she's a cat." 0:33–0:36 (f792–864) -->
          <clipitem id="txt_shes_a_cat">
            <name>TEXT: "Yeah… she's a cat."</name>
            <duration>72</duration>
            <rate><timebase>24</timebase><ntsc>FALSE</ntsc></rate>
            <start>792</start>
            <end>864</end>
            <in>0</in>
            <out>72</out>
            <file id="file_txt_cat">
              <name>text_shes_a_cat.png</name>
              <pathurl>file://assets/text_shes_a_cat.png</pathurl>
              <rate><timebase>24</timebase><ntsc>FALSE</ntsc></rate>
              <media><video><samplecharacteristics><width>1920</width><height>1080</height></samplecharacteristics></video></media>
            </file>
          </clipitem>

          <!-- Reveal text 0:36–0:39 (f864–936) -->
          <clipitem id="txt_reveal">
            <name>TEXT: "They're our AI selves. / More than one mind. One life, as one whole."</name>
            <duration>72</duration>
            <rate><timebase>24</timebase><ntsc>FALSE</ntsc></rate>
            <start>864</start>
            <end>936</end>
            <in>0</in>
            <out>72</out>
            <file id="file_txt_reveal">
              <name>text_reveal_thesis.png</name>
              <pathurl>file://assets/text_reveal_thesis.png</pathurl>
              <rate><timebase>24</timebase><ntsc>FALSE</ntsc></rate>
              <media><video><samplecharacteristics><width>1920</width><height>1080</height></samplecharacteristics></video></media>
            </file>
          </clipitem>

          <!-- "PIKA — WHERE AI LIVES" 0:39–0:40 (f936–960) -->
          <clipitem id="txt_endcard">
            <name>TEXT: "PIKA — WHERE AI LIVES"</name>
            <duration>24</duration>
            <rate><timebase>24</timebase><ntsc>FALSE</ntsc></rate>
            <start>936</start>
            <end>960</end>
            <in>0</in>
            <out>24</out>
            <file id="file_txt_endcard">
              <name>text_pika_where_ai_lives.png</name>
              <pathurl>file://assets/text_pika_where_ai_lives.png</pathurl>
              <rate><timebase>24</timebase><ntsc>FALSE</ntsc></rate>
              <media><video><samplecharacteristics><width>1920</width><height>1080</height></samplecharacteristics></video></media>
            </file>
          </clipitem>

        </track>
      </video>

      <audio>
        <format>
          <samplecharacteristics>
            <samplerate>48000</samplerate>
            <depth>16</depth>
          </samplecharacteristics>
        </format>
        <!-- A1: VO track -->
        <track>
          <clipitem id="vo_full">
            <name>VO: Full voiceover (35-40s)</name>
            <duration>960</duration>
            <rate><timebase>24</timebase><ntsc>FALSE</ntsc></rate>
            <start>0</start>
            <end>960</end>
            <in>0</in>
            <out>960</out>
            <file id="file_vo">
              <name>vo_ai_selves_v6.wav</name>
              <pathurl>file://assets/vo_ai_selves_v6.wav</pathurl>
              <rate><timebase>24</timebase><ntsc>FALSE</ntsc></rate>
              <media><audio><samplecharacteristics><samplerate>48000</samplerate><depth>16</depth></samplecharacteristics></audio></media>
            </file>
          </clipitem>
        </track>
        <!-- A2: Music track -->
        <track>
          <clipitem id="music_bed">
            <name>MUSIC: Piano bed (placeholder)</name>
            <duration>960</duration>
            <rate><timebase>24</timebase><ntsc>FALSE</ntsc></rate>
            <start>0</start>
            <end>960</end>
            <in>0</in>
            <out>960</out>
            <file id="file_music">
              <name>music_piano_bed.wav</name>
              <pathurl>file://assets/music_piano_bed.wav</pathurl>
              <rate><timebase>24</timebase><ntsc>FALSE</ntsc></rate>
              <media><audio><samplecharacteristics><samplerate>48000</samplerate><depth>16</depth></samplecharacteristics></audio></media>
            </file>
          </clipitem>
        </track>
      </audio>
    </media>
  </sequence>
</xmeml>
